<svg id="Logo" xmlns="http://www.w3.org/2000/svg" viewBox="0 0 438.99 109.85" width="438.99" height="109.85">
  <defs>
    <style>.cls-1{fill:#3a4c00;}.cls-2{fill:#00a8cb;}.cls-3{fill:#fff;}.cls-4{fill:#b0bc22;}</style>
  </defs>
  <title>SENRS_logo</title>
  <path class="cls-1" d="M212.39,70.94a8.7,8.7,0,0,0-3.42-.72c-1.16,0-2.65.51-2.65,2.34,0,2.91,7.37,1.69,7.37,7.32,0,3.68-2.91,5.08-6.31,5.08a14.81,14.81,0,0,1-4.31-.65l.31-3a8.1,8.1,0,0,0,3.8,1c1.28,0,3-.65,3-2.17,0-3.2-7.37-1.88-7.37-7.44,0-3.76,2.91-5.13,5.87-5.13a12.69,12.69,0,0,1,4,.6Z" transform="translate(-64.29 -49.58)" />
  <path class="cls-1" d="M224.51,74.93a4.88,4.88,0,0,0-2.19-.46c-2,0-3.27,1.59-3.27,3.92s1.08,4,3.35,4a6.85,6.85,0,0,0,2.48-.58l.14,2.67a10.52,10.52,0,0,1-3.23.41c-4.07,0-6.12-2.77-6.12-6.55,0-3.59,2.12-6.43,6-6.43a10.51,10.51,0,0,1,3.13.41Z" transform="translate(-64.29 -49.58)" />
  <path class="cls-1" d="M227.15,66.6h3.23v7.34h0a4.62,4.62,0,0,1,3.9-2c2.94,0,4.21,2.07,4.21,4.86v7.83h-3.23V78c0-1.52,0-3.56-2.09-3.56-2.34,0-2.84,2.53-2.84,4.12v6.07h-3.23Z" transform="translate(-64.29 -49.58)" />
  <path class="cls-1" d="M247.55,72a6.21,6.21,0,0,1,6.5,6.57,6.49,6.49,0,0,1-13,0A6.21,6.21,0,0,1,247.55,72Zm0,10.47c2.48,0,3.13-2.22,3.13-4.29,0-1.9-1-3.68-3.13-3.68s-3.11,1.83-3.11,3.68C244.44,80.21,245.09,82.45,247.55,82.45Z" transform="translate(-64.29 -49.58)" />
  <path class="cls-1" d="M262.26,72a6.21,6.21,0,0,1,6.5,6.57,6.49,6.49,0,0,1-13,0A6.21,6.21,0,0,1,262.26,72Zm0,10.47c2.48,0,3.13-2.22,3.13-4.29,0-1.9-1-3.68-3.13-3.68s-3.11,1.83-3.11,3.68C259.15,80.21,259.8,82.45,262.26,82.45Z" transform="translate(-64.29 -49.58)" />
  <path class="cls-1" d="M271.36,66.6h3.23V84.66h-3.23Z" transform="translate(-64.29 -49.58)" />
  <path class="cls-1" d="M290.36,72a6.21,6.21,0,0,1,6.5,6.57,6.49,6.49,0,0,1-13,0A6.2,6.2,0,0,1,290.36,72Zm0,10.47c2.48,0,3.13-2.22,3.13-4.29,0-1.9-1-3.68-3.13-3.68s-3.11,1.83-3.11,3.68C287.25,80.21,287.9,82.45,290.36,82.45Z" transform="translate(-64.29 -49.58)" />
  <path class="cls-1" d="M300.57,74.62h-2.38V72.26h2.38V70.53c0-2.48,1.4-4.21,3.95-4.21a11.38,11.38,0,0,1,2.36.26l-.27,2.67a2.49,2.49,0,0,0-1.4-.43c-1.08,0-1.42.94-1.42,1.9v1.54h2.82v2.36h-2.82v10h-3.23Z" transform="translate(-64.29 -49.58)" />
  <path class="cls-1" d="M315.74,67.85h9.92V70.5h-6.55v4.14h6v2.65h-6V82h6.6v2.65h-10Z" transform="translate(-64.29 -49.58)" />
  <path class="cls-1" d="M328.84,72.26h3.06v1.69h0A4.63,4.63,0,0,1,336,72c2.94,0,4.21,2.07,4.21,4.86v7.83H337V78c0-1.52,0-3.56-2.1-3.56-2.34,0-2.84,2.53-2.84,4.12v6.07h-3.23Z" transform="translate(-64.29 -49.58)" />
  <path class="cls-1" d="M342.18,72.26h3.47l3.08,9h0l3-9H355l-4.58,12.4h-3.64Z" transform="translate(-64.29 -49.58)" />
  <path class="cls-1" d="M357,66.91h3.23V70H357Zm0,5.35h3.23v12.4H357Z" transform="translate(-64.29 -49.58)" />
  <path class="cls-1" d="M363.7,72.26h2.87v2.82h0A3.8,3.8,0,0,1,370,72a3.51,3.51,0,0,1,1,.1v3.25a3.3,3.3,0,0,0-1.45-.26c-2.62,0-2.62,3.27-2.62,5.06v4.55H363.7Z" transform="translate(-64.29 -49.58)" />
  <path class="cls-1" d="M378.27,72a6.21,6.21,0,0,1,6.5,6.57,6.49,6.49,0,0,1-13,0A6.2,6.2,0,0,1,378.27,72Zm0,10.47c2.48,0,3.13-2.22,3.13-4.29,0-1.9-1-3.68-3.13-3.68s-3.11,1.83-3.11,3.68C375.16,80.21,375.81,82.45,378.27,82.45Z" transform="translate(-64.29 -49.58)" />
  <path class="cls-1" d="M387.3,72.26h3.06v1.69h0a4.63,4.63,0,0,1,4.07-2c2.94,0,4.21,2.07,4.21,4.86v7.83h-3.23V78c0-1.52,0-3.56-2.09-3.56-2.34,0-2.84,2.53-2.84,4.12v6.07H387.3Z" transform="translate(-64.29 -49.58)" />
  <path class="cls-1" d="M402,72.26h3V74h0a4.37,4.37,0,0,1,3.69-2,3.62,3.62,0,0,1,3.66,2.19A4.25,4.25,0,0,1,416.24,72c3.06,0,3.93,2.09,3.93,4.86v7.83h-3.23V77.27c0-1.16,0-2.79-1.85-2.79-2.14,0-2.41,2.55-2.41,4.17v6h-3.23V77.27c0-1.16,0-2.79-1.85-2.79-2.14,0-2.41,2.55-2.41,4.17v6H402Z" transform="translate(-64.29 -49.58)" />
  <path class="cls-1" d="M433.36,84a8.52,8.52,0,0,1-4.26,1c-4.09,0-6.48-2.36-6.48-6.43,0-3.59,1.9-6.55,5.75-6.55,4.6,0,5.9,3.15,5.9,7.49h-8.57a3.24,3.24,0,0,0,3.54,3.13,8.36,8.36,0,0,0,4.12-1.25Zm-2.17-6.72c-.1-1.57-.82-2.91-2.62-2.91s-2.72,1.25-2.87,2.91Z" transform="translate(-64.29 -49.58)" />
  <path class="cls-1" d="M436.8,72.26h3.06v1.69h0A4.63,4.63,0,0,1,444,72c2.94,0,4.21,2.07,4.21,4.86v7.83H445V78c0-1.52,0-3.56-2.09-3.56-2.34,0-2.84,2.53-2.84,4.12v6.07H436.8Z" transform="translate(-64.29 -49.58)" />
  <path class="cls-1" d="M452.57,74.62h-2.38V72.26h2.38V69.78l3.23-1v3.52h2.87v2.36H455.8V80.4c0,1.06.29,2,1.52,2a2.88,2.88,0,0,0,1.47-.34l.1,2.55a8.49,8.49,0,0,1-2.38.29c-2.53,0-3.93-1.57-3.93-4Z" transform="translate(-64.29 -49.58)" />
  <path class="cls-1" d="M461.44,72.91a11.1,11.1,0,0,1,4.31-.94c3.78,0,5.35,1.57,5.35,5.23v1.59c0,1.25,0,2.19,0,3.11s.07,1.81.14,2.77h-2.84a14.86,14.86,0,0,1-.14-1.85h0a4.43,4.43,0,0,1-3.83,2.14c-2.19,0-4.33-1.32-4.33-3.68a3.64,3.64,0,0,1,2.12-3.54,9.83,9.83,0,0,1,4.17-.72h1.78c0-2-.89-2.67-2.79-2.67a6.49,6.49,0,0,0-3.83,1.35Zm3.78,9.68a2.74,2.74,0,0,0,2.26-1.11,4.11,4.11,0,0,0,.67-2.55h-1.4c-1.45,0-3.59.24-3.59,2.14C463.17,82.13,464.06,82.59,465.22,82.59Z" transform="translate(-64.29 -49.58)" />
  <path class="cls-1" d="M474.34,66.6h3.23V84.66h-3.23Z" transform="translate(-64.29 -49.58)" />
  <path class="cls-1" d="M498.42,79.19a5.92,5.92,0,0,0,1.06-3.66h2.94a9.51,9.51,0,0,1-2.14,5.75l3,3.37h-4.14L498,83.17a6.44,6.44,0,0,1-4.57,1.78c-3.32,0-6-1.73-6-4.89,0-2,.87-3.49,3.54-4.62-1.3-1.23-2.34-2.12-2.34-4,0-2.55,2.75-3.83,5.11-3.83s4.84,1.08,4.84,3.8c0,2.31-1.42,3.39-3.25,4.45Zm-5.71-1.93a3.11,3.11,0,0,0-2,2.7,2.62,2.62,0,0,0,2.84,2.48,4.13,4.13,0,0,0,2.94-1Zm2.94-5.61a1.7,1.7,0,0,0-1.85-1.73,1.77,1.77,0,0,0-1.93,1.78c0,.94.94,1.73,1.59,2.38C494.3,73.66,495.65,72.65,495.65,71.66Z" transform="translate(-64.29 -49.58)" />
  <path class="cls-1" d="M203.2,98h4.14l6.4,12.57h0V98H217v16.81H212.9l-6.43-12.57h0v12.57H203.2Z" transform="translate(-64.29 -49.58)" />
  <path class="cls-1" d="M221,103a11.09,11.09,0,0,1,4.31-.94c3.78,0,5.35,1.57,5.35,5.23v1.59c0,1.25,0,2.19,0,3.11s.07,1.81.14,2.77H228a15,15,0,0,1-.14-1.85h0A4.43,4.43,0,0,1,224,115c-2.19,0-4.33-1.32-4.33-3.68a3.64,3.64,0,0,1,2.12-3.54,9.83,9.83,0,0,1,4.17-.72h1.78c0-2-.89-2.67-2.79-2.67a6.49,6.49,0,0,0-3.83,1.35Zm3.78,9.68a2.74,2.74,0,0,0,2.26-1.11,4.11,4.11,0,0,0,.67-2.55h-1.4c-1.44,0-3.59.24-3.59,2.14C222.75,112.23,223.64,112.69,224.79,112.69Z" transform="translate(-64.29 -49.58)" />
  <path class="cls-1" d="M234.91,104.72h-2.38v-2.36h2.38V99.88l3.23-1v3.52H241v2.36h-2.87v5.78c0,1.06.29,2,1.52,2a2.88,2.88,0,0,0,1.47-.34l.1,2.55a8.5,8.5,0,0,1-2.38.29c-2.53,0-3.92-1.57-3.92-4Z" transform="translate(-64.29 -49.58)" />
  <path class="cls-1" d="M254.6,114.76h-3.06v-1.69h0a5.17,5.17,0,0,1-4.07,2c-2.94,0-4.21-2.07-4.21-4.86v-7.83h3.23V109c0,1.52,0,3.56,2.1,3.56,2.34,0,2.84-2.53,2.84-4.12v-6.07h3.23Z" transform="translate(-64.29 -49.58)" />
  <path class="cls-1" d="M258,102.36h2.87v2.82h0a3.8,3.8,0,0,1,3.4-3.11,3.51,3.51,0,0,1,1,.1v3.25a3.3,3.3,0,0,0-1.44-.26c-2.62,0-2.62,3.27-2.62,5.06v4.55H258Z" transform="translate(-64.29 -49.58)" />
  <path class="cls-1" d="M267.85,103a11.09,11.09,0,0,1,4.31-.94c3.78,0,5.35,1.57,5.35,5.23v1.59c0,1.25,0,2.19,0,3.11s.07,1.81.14,2.77h-2.84a14.84,14.84,0,0,1-.14-1.85h0a4.43,4.43,0,0,1-3.83,2.14c-2.19,0-4.33-1.32-4.33-3.68a3.64,3.64,0,0,1,2.12-3.54,9.83,9.83,0,0,1,4.17-.72h1.78c0-2-.89-2.67-2.79-2.67a6.49,6.49,0,0,0-3.83,1.35Zm3.78,9.68a2.74,2.74,0,0,0,2.26-1.11,4.11,4.11,0,0,0,.67-2.55h-1.4c-1.45,0-3.59.24-3.59,2.14C269.58,112.23,270.47,112.69,271.63,112.69Z" transform="translate(-64.29 -49.58)" />
  <path class="cls-1" d="M280.75,96.7H284v18.06h-3.23Z" transform="translate(-64.29 -49.58)" />
  <path class="cls-1" d="M294.07,98h3.63c3.61,0,7.92-.12,7.92,4.55a3.84,3.84,0,0,1-3.47,3.9v0c.91.07,1.44,1,1.78,1.73l2.7,6.57h-3.76l-2-5.25c-.48-1.25-.91-1.73-2.34-1.73h-1.08v7h-3.37Zm3.37,7.18h1.11c1.66,0,3.56-.24,3.56-2.34s-1.88-2.19-3.56-2.19h-1.11Z" transform="translate(-64.29 -49.58)" />
  <path class="cls-1" d="M318.72,114.06a8.52,8.52,0,0,1-4.26,1c-4.09,0-6.48-2.36-6.48-6.43,0-3.59,1.9-6.55,5.75-6.55,4.6,0,5.9,3.15,5.9,7.49h-8.57a3.24,3.24,0,0,0,3.54,3.13,8.36,8.36,0,0,0,4.12-1.25Zm-2.17-6.72c-.1-1.57-.82-2.91-2.62-2.91s-2.72,1.25-2.87,2.91Z" transform="translate(-64.29 -49.58)" />
  <path class="cls-1" d="M329.54,105a7.92,7.92,0,0,0-2.89-.53c-.87,0-1.9.31-1.9,1.37,0,2,5.61.72,5.61,5.2,0,2.89-2.58,4-5.2,4a14.43,14.43,0,0,1-3.66-.53l.19-2.65a7.08,7.08,0,0,0,3.18.82c.82,0,2.12-.31,2.12-1.52,0-2.43-5.61-.77-5.61-5.25,0-2.67,2.34-3.85,4.86-3.85a14.86,14.86,0,0,1,3.52.46Z" transform="translate(-64.29 -49.58)" />
  <path class="cls-1" d="M338.54,102.07a6.21,6.21,0,0,1,6.5,6.57,6.49,6.49,0,0,1-13,0A6.21,6.21,0,0,1,338.54,102.07Zm0,10.47c2.48,0,3.13-2.22,3.13-4.29,0-1.9-1-3.68-3.13-3.68s-3.11,1.83-3.11,3.68C335.43,110.3,336.08,112.54,338.54,112.54Z" transform="translate(-64.29 -49.58)" />
  <path class="cls-1" d="M359,114.76H355.9v-1.69h0a5.17,5.17,0,0,1-4.07,2c-2.94,0-4.21-2.07-4.21-4.86v-7.83h3.23V109c0,1.52,0,3.56,2.1,3.56,2.34,0,2.84-2.53,2.84-4.12v-6.07H359Z" transform="translate(-64.29 -49.58)" />
  <path class="cls-1" d="M362.35,102.36h2.87v2.82h0a3.8,3.8,0,0,1,3.4-3.11,3.5,3.5,0,0,1,1,.1v3.25a3.29,3.29,0,0,0-1.44-.26c-2.62,0-2.62,3.27-2.62,5.06v4.55h-3.23Z" transform="translate(-64.29 -49.58)" />
  <path class="cls-1" d="M379.28,105a4.86,4.86,0,0,0-2.19-.46c-2,0-3.28,1.59-3.28,3.92s1.08,4,3.35,4a6.84,6.84,0,0,0,2.48-.58l.14,2.67a10.51,10.51,0,0,1-3.23.41c-4.07,0-6.12-2.77-6.12-6.55,0-3.59,2.12-6.43,6-6.43a10.51,10.51,0,0,1,3.13.41Z" transform="translate(-64.29 -49.58)" />
  <path class="cls-1" d="M391.87,114.06a8.52,8.52,0,0,1-4.26,1c-4.09,0-6.48-2.36-6.48-6.43,0-3.59,1.9-6.55,5.75-6.55,4.6,0,5.9,3.15,5.9,7.49h-8.57a3.24,3.24,0,0,0,3.54,3.13,8.36,8.36,0,0,0,4.12-1.25Zm-2.17-6.72c-.1-1.57-.82-2.91-2.62-2.91s-2.72,1.25-2.87,2.91Z" transform="translate(-64.29 -49.58)" />
  <path class="cls-1" d="M411.33,101a8.69,8.69,0,0,0-3.42-.72c-1.16,0-2.65.51-2.65,2.34,0,2.91,7.37,1.69,7.37,7.32,0,3.68-2.91,5.08-6.31,5.08a14.82,14.82,0,0,1-4.31-.65l.31-3a8.09,8.09,0,0,0,3.8,1c1.28,0,3-.65,3-2.17,0-3.2-7.37-1.88-7.37-7.44,0-3.76,2.91-5.13,5.87-5.13a12.69,12.69,0,0,1,4,.6Z" transform="translate(-64.29 -49.58)" />
  <path class="cls-1" d="M423.44,105a4.86,4.86,0,0,0-2.19-.46c-2,0-3.28,1.59-3.28,3.92s1.08,4,3.35,4a6.84,6.84,0,0,0,2.48-.58l.14,2.67a10.51,10.51,0,0,1-3.23.41c-4.07,0-6.12-2.77-6.12-6.55,0-3.59,2.12-6.43,6-6.43a10.51,10.51,0,0,1,3.13.41Z" transform="translate(-64.29 -49.58)" />
  <path class="cls-1" d="M426.16,97h3.23v3.08h-3.23Zm0,5.35h3.23v12.4h-3.23Z" transform="translate(-64.29 -49.58)" />
  <path class="cls-1" d="M442.73,114.06a8.52,8.52,0,0,1-4.26,1c-4.09,0-6.48-2.36-6.48-6.43,0-3.59,1.9-6.55,5.75-6.55,4.6,0,5.9,3.15,5.9,7.49h-8.57a3.24,3.24,0,0,0,3.54,3.13,8.37,8.37,0,0,0,4.12-1.25Zm-2.17-6.72c-.1-1.57-.82-2.91-2.62-2.91s-2.72,1.25-2.87,2.91Z" transform="translate(-64.29 -49.58)" />
  <path class="cls-1" d="M446.17,102.36h3.06V104h0a4.63,4.63,0,0,1,4.07-2c2.94,0,4.21,2.07,4.21,4.86v7.83h-3.23v-6.62c0-1.52,0-3.56-2.09-3.56-2.34,0-2.84,2.53-2.84,4.12v6.07h-3.23Z" transform="translate(-64.29 -49.58)" />
  <path class="cls-1" d="M468.92,105a4.87,4.87,0,0,0-2.19-.46c-2,0-3.28,1.59-3.28,3.92s1.08,4,3.35,4a6.85,6.85,0,0,0,2.48-.58l.14,2.67a10.52,10.52,0,0,1-3.23.41c-4.07,0-6.12-2.77-6.12-6.55,0-3.59,2.12-6.43,6-6.43a10.51,10.51,0,0,1,3.13.41Z" transform="translate(-64.29 -49.58)" />
  <path class="cls-1" d="M481.52,114.06a8.51,8.51,0,0,1-4.26,1c-4.09,0-6.48-2.36-6.48-6.43,0-3.59,1.9-6.55,5.75-6.55,4.6,0,5.9,3.15,5.9,7.49h-8.57a3.24,3.24,0,0,0,3.54,3.13,8.35,8.35,0,0,0,4.12-1.25Zm-2.17-6.72c-.1-1.57-.82-2.91-2.62-2.91s-2.72,1.25-2.87,2.91Z" transform="translate(-64.29 -49.58)" />
  <path class="cls-1" d="M492.33,105a7.93,7.93,0,0,0-2.89-.53c-.87,0-1.9.31-1.9,1.37,0,2,5.61.72,5.61,5.2,0,2.89-2.58,4-5.2,4a14.43,14.43,0,0,1-3.66-.53l.19-2.65a7.08,7.08,0,0,0,3.18.82c.82,0,2.12-.31,2.12-1.52,0-2.43-5.61-.77-5.61-5.25,0-2.67,2.33-3.85,4.86-3.85a14.85,14.85,0,0,1,3.52.46Z" transform="translate(-64.29 -49.58)" />
  <path class="cls-1" d="M202.88,132.25h7v2h-4.48v3.11h4.26v2h-4.26v5.53h-2.53Z" transform="translate(-64.29 -49.58)" />
  <path class="cls-1" d="M211.74,135.55h2.15v2.11h0a2.85,2.85,0,0,1,2.55-2.33,2.64,2.64,0,0,1,.74.07v2.44a2.47,2.47,0,0,0-1.08-.2c-2,0-2,2.46-2,3.79v3.41h-2.42Z" transform="translate(-64.29 -49.58)" />
  <path class="cls-1" d="M222.67,135.34a4.66,4.66,0,0,1,4.88,4.93,4.87,4.87,0,0,1-9.74,0A4.66,4.66,0,0,1,222.67,135.34Zm0,7.86c1.86,0,2.35-1.66,2.35-3.22s-.76-2.76-2.35-2.76-2.33,1.37-2.33,2.76S220.83,143.19,222.67,143.19Z" transform="translate(-64.29 -49.58)" />
  <path class="cls-1" d="M235,137.5a5.92,5.92,0,0,0-2.17-.4c-.65,0-1.43.24-1.43,1,0,1.48,4.21.54,4.21,3.9,0,2.17-1.93,3-3.9,3a10.87,10.87,0,0,1-2.75-.4l.14-2a5.31,5.31,0,0,0,2.38.61c.61,0,1.59-.23,1.59-1.14,0-1.82-4.21-.58-4.21-3.94,0-2,1.75-2.89,3.65-2.89a11.12,11.12,0,0,1,2.64.34Z" transform="translate(-64.29 -49.58)" />
  <path class="cls-1" d="M238.25,137.32h-1.79v-1.77h1.79v-1.86l2.42-.78v2.64h2.15v1.77h-2.15v4.34c0,.79.22,1.54,1.14,1.54a2.17,2.17,0,0,0,1.1-.25l.07,1.91a6.37,6.37,0,0,1-1.79.22,2.74,2.74,0,0,1-2.94-3Z" transform="translate(-64.29 -49.58)" />
  <path class="cls-1" d="M258.9,144.68a12.8,12.8,0,0,1-2.87.4c-4.08,0-6.92-2-6.92-6.31S251.75,132,256,132a8.33,8.33,0,0,1,2.85.52l-.18,2.13A5.2,5.2,0,0,0,256,134c-2.6,0-4.23,2-4.23,4.57a4.15,4.15,0,0,0,4.28,4.5,7,7,0,0,0,2.76-.52Z" transform="translate(-64.29 -49.58)" />
  <path class="cls-1" d="M261,136a8.33,8.33,0,0,1,3.23-.7c2.84,0,4,1.17,4,3.92v1.19c0,.94,0,1.64,0,2.33s.05,1.35.11,2.08h-2.13a11.35,11.35,0,0,1-.11-1.39h0a3.32,3.32,0,0,1-2.87,1.61c-1.64,0-3.25-1-3.25-2.76a2.73,2.73,0,0,1,1.59-2.66,7.36,7.36,0,0,1,3.13-.54H266c0-1.5-.67-2-2.1-2a4.87,4.87,0,0,0-2.87,1Zm2.84,7.26a2.06,2.06,0,0,0,1.7-.83,3.09,3.09,0,0,0,.51-1.92h-1c-1.08,0-2.69.18-2.69,1.61C262.25,143,262.92,143.3,263.79,143.3Z" transform="translate(-64.29 -49.58)" />
  <path class="cls-1" d="M270.54,135.55h2.26v1.3h0a3.28,3.28,0,0,1,2.76-1.52,2.71,2.71,0,0,1,2.75,1.64,3.19,3.19,0,0,1,2.91-1.64c2.29,0,2.95,1.57,2.95,3.65v5.87h-2.42v-5.55c0-.87,0-2.1-1.39-2.1-1.61,0-1.81,1.91-1.81,3.13v4.52h-2.42v-5.55c0-.87,0-2.1-1.39-2.1-1.61,0-1.81,1.91-1.81,3.13v4.52h-2.42Z" transform="translate(-64.29 -49.58)" />
  <path class="cls-1" d="M286.63,135.55h2.31v1.32h0a3.15,3.15,0,0,1,2.89-1.54c2.85,0,3.9,2.28,3.9,4.84s-1,4.9-4,4.9a3.18,3.18,0,0,1-2.73-1.28h0v4.86h-2.42Zm2.44,4.63c0,1.32.52,3,2.13,3s2-1.73,2-3-.43-3-2-3S289.07,138.88,289.07,140.18Z" transform="translate(-64.29 -49.58)" />
  <path class="cls-1" d="M306.21,144.86h-2.29v-1.26h0a3.88,3.88,0,0,1-3.05,1.48c-2.2,0-3.16-1.55-3.16-3.65v-5.87h2.42v5c0,1.14,0,2.67,1.57,2.67,1.75,0,2.13-1.9,2.13-3.09v-4.55h2.42Z" transform="translate(-64.29 -49.58)" />
  <path class="cls-1" d="M314.23,137.5a5.92,5.92,0,0,0-2.17-.4c-.65,0-1.43.24-1.43,1,0,1.48,4.21.54,4.21,3.9,0,2.17-1.93,3-3.9,3a10.86,10.86,0,0,1-2.75-.4l.14-2a5.31,5.31,0,0,0,2.38.61c.61,0,1.59-.23,1.59-1.14,0-1.82-4.21-.58-4.21-3.94,0-2,1.75-2.89,3.65-2.89a11.14,11.14,0,0,1,2.64.34Z" transform="translate(-64.29 -49.58)" />
  <path class="cls-1" d="M323.31,130.66h1.25v18.07h-1.25Z" transform="translate(-64.29 -49.58)" />
  <path class="cls-1" d="M333.88,132.25h6.7v1.59h-4.9v3.69h4.68v1.59h-4.68v5.75h-1.81Z" transform="translate(-64.29 -49.58)" />
  <path class="cls-1" d="M343.07,131.31h1.7v13.55h-1.7Z" transform="translate(-64.29 -49.58)" />
  <path class="cls-1" d="M354.94,144.48a7,7,0,0,1-2.91.6c-3.27,0-4.77-2-4.77-5,0-2.73,1.72-4.66,4.32-4.66,3.07,0,4.06,2.24,4.06,5.2h-6.58a3,3,0,0,0,3,3.07,5.45,5.45,0,0,0,2.84-.92Zm-1.1-5.11a2.33,2.33,0,0,0-2.29-2.57,2.55,2.55,0,0,0-2.47,2.57Z" transform="translate(-64.29 -49.58)" />
  <path class="cls-1" d="M357.89,135.64h1.59V137h0a3.11,3.11,0,0,1,2.93-1.55,2.72,2.72,0,0,1,2.62,1.79,3.28,3.28,0,0,1,2.85-1.79c2.35,0,3.2,1.52,3.2,3.52v5.91h-1.7v-5.49c0-1.14-.27-2.57-1.64-2.57-1.73,0-2.42,1.7-2.42,3.41v4.64h-1.7v-5.49c0-1.14-.27-2.57-1.64-2.57-1.73,0-2.42,1.7-2.42,3.41v4.64h-1.7Z" transform="translate(-64.29 -49.58)" />
  <path class="cls-1" d="M376,133.76h-1.91v-1.92H376Zm-1.81,1.88h1.7v9.21h-1.7Z" transform="translate(-64.29 -49.58)" />
  <path class="cls-1" d="M379,135.64h1.64v1.46h0a3.31,3.31,0,0,1,3-1.68c2.38,0,3.45,1.48,3.45,4v5.47h-1.7v-4.77c0-2.15-.47-3.2-2-3.29-1.93,0-2.8,1.55-2.8,3.79v4.26H379Z" transform="translate(-64.29 -49.58)" />
  <path class="cls-1" d="M398.17,144.46c0,2.8-1.45,4.41-4.75,4.41a9.31,9.31,0,0,1-3.31-.63l.18-1.57a7,7,0,0,0,3.32.83c1.79,0,2.86-1.21,2.86-3.16v-.9h0a3.84,3.84,0,0,1-3.09,1.43c-2.64,0-3.94-2.15-3.94-4.53s1.34-4.9,4.12-4.9a3,3,0,0,1,3,1.59h0v-1.37h1.57Zm-1.7-4.1c0-1.91-.88-3.56-2.69-3.56s-2.57,1.86-2.57,3.43c0,1.73,1,3.25,2.57,3.25A2.87,2.87,0,0,0,396.47,140.36Z" transform="translate(-64.29 -49.58)" />
  <path class="cls-1" d="M414.95,134.32a5.06,5.06,0,0,0-2.6-.71,4.93,4.93,0,0,0-.09,9.86,6.22,6.22,0,0,0,2.75-.61l.11,1.75a7.87,7.87,0,0,1-2.87.45c-4,0-6.65-2.57-6.65-6.58s2.82-6.47,6.67-6.47a7,7,0,0,1,2.84.54Z" transform="translate(-64.29 -49.58)" />
  <path class="cls-1" d="M421.19,135.43a4.54,4.54,0,0,1,4.68,4.82,4.69,4.69,0,1,1-9.37,0A4.55,4.55,0,0,1,421.19,135.43Zm0,8.27c2,0,2.87-1.81,2.87-3.45s-1.06-3.45-2.87-3.45-2.89,1.7-2.89,3.45S419.19,143.7,421.19,143.7Z" transform="translate(-64.29 -49.58)" />
  <path class="cls-1" d="M428.36,131.31h1.7v13.55h-1.7Z" transform="translate(-64.29 -49.58)" />
  <path class="cls-1" d="M433.38,131.31h1.7v13.55h-1.7Z" transform="translate(-64.29 -49.58)" />
  <path class="cls-1" d="M445.25,144.48a7,7,0,0,1-2.91.6c-3.27,0-4.77-2-4.77-5,0-2.73,1.71-4.66,4.32-4.66,3.07,0,4.07,2.24,4.07,5.2h-6.58a3,3,0,0,0,3,3.07,5.45,5.45,0,0,0,2.84-.92Zm-1.1-5.11a2.33,2.33,0,0,0-2.29-2.57,2.55,2.55,0,0,0-2.47,2.57Z" transform="translate(-64.29 -49.58)" />
  <path class="cls-1" d="M456.37,144.46c0,2.8-1.45,4.41-4.75,4.41a9.33,9.33,0,0,1-3.31-.63l.18-1.57a7,7,0,0,0,3.32.83c1.79,0,2.85-1.21,2.85-3.16v-.9h0a3.85,3.85,0,0,1-3.09,1.43c-2.64,0-3.94-2.15-3.94-4.53s1.34-4.9,4.12-4.9a3,3,0,0,1,3,1.59h0v-1.37h1.57Zm-1.7-4.1c0-1.91-.88-3.56-2.69-3.56s-2.56,1.86-2.56,3.43c0,1.73,1,3.25,2.56,3.25A2.87,2.87,0,0,0,454.67,140.36Z" transform="translate(-64.29 -49.58)" />
  <path class="cls-1" d="M466.32,144.48a7,7,0,0,1-2.91.6c-3.27,0-4.77-2-4.77-5,0-2.73,1.71-4.66,4.32-4.66,3.07,0,4.07,2.24,4.07,5.2h-6.58a3,3,0,0,0,3,3.07,5.45,5.45,0,0,0,2.84-.92Zm-1.1-5.11a2.33,2.33,0,0,0-2.29-2.57,2.55,2.55,0,0,0-2.47,2.57Z" transform="translate(-64.29 -49.58)" />
  <path class="cls-1" d="M158.52,112.23c5.79-.15,10.73,0,14.76.23l-15.4-31.35L143.18,111c-1.27,0-2.6,0-4,0l6.69-13.62L132.27,69.62,111.51,111.9a262.93,262.93,0,0,0-45.34,6.82A54.57,54.57,0,0,0,71.67,132c25.3-12.6,51.92-17.45,72.9-19.06C152.36,112.32,152.58,112.38,158.52,112.23Z" transform="translate(-64.29 -49.58)" />
  <path class="cls-2" d="M87.79,149.53c32.22-26.89,69.34-31.24,84.74-31.8q.53-2.14.89-4.34c-19,.47-60,4.59-93.5,29.46A55.16,55.16,0,0,0,87.79,149.53Z" transform="translate(-64.29 -49.58)" />
  <path class="cls-2" d="M99.37,155.71a54.92,54.92,0,0,0,72.87-36.88C157.33,121.51,123.51,130.17,99.37,155.71Z" transform="translate(-64.29 -49.58)" />
  <path class="cls-3" d="M172.23,118.84q.15-.55.29-1.1c-15.41.56-52.52,4.92-84.73,31.8a54.81,54.81,0,0,0,11.58,6.18C123.52,130.19,157.32,121.52,172.23,118.84Z" transform="translate(-64.29 -49.58)" />
  <path class="cls-3" d="M173.28,112.47a216.53,216.53,0,0,0-28.71.46c-21,1.67-47.58,6.46-72.87,19a55.08,55.08,0,0,0,8.23,10.88c33.46-24.86,74.5-29,93.49-29.45,0-.3.1-.61.14-.91Z" transform="translate(-64.29 -49.58)" />
  <path class="cls-4" d="M173.56,112.47a55.32,55.32,0,0,0,.57-7.47C173.86,75.31,150.9,51.15,122,49.65q-1.4-.07-2.82-.07c-1.81,0-3.61.09-5.37.27l-.25,0-.43.05c-26.45,2.94-47.25,25-48.82,52.29,0,.76-.06,1.53-.06,2.29a54.8,54.8,0,0,0,1.87,14.22,262.91,262.91,0,0,1,45.34-6.82l20.76-42.28,13.65,27.77L139.22,111c1.36,0,2.69,0,4,0l14.69-29.89,15.4,31.35" transform="translate(-64.29 -49.58)" />
</svg>